<svg width="512" height="512" viewBox="0 0 512 512" fill="none" xmlns="http://www.w3.org/2000/svg">
<rect width="512" height="512" fill="white"/>
<path d="M144.563 352H94.6875L191.344 160H253.125L286.031 352H236.156L215.063 208.375H213.563L144.563 352ZM150.563 276.437H254.813L248.813 311.687H144.563L150.563 276.437ZM224.625 149.594C216.375 149.594 209.813 146.75 204.938 141.062C200.063 135.375 198.25 128.562 199.5 120.625C200.375 115.375 202.438 110.625 205.688 106.375C209 102.062 213.031 98.6875 217.781 96.25C222.594 93.75 227.688 92.5 233.063 92.5C238.625 92.5 243.5 93.8125 247.688 96.4375C251.875 99 254.969 102.469 256.969 106.844C258.969 111.219 259.438 116.094 258.375 121.469C257.438 126.594 255.313 131.312 252 135.625C248.688 139.875 244.625 143.281 239.813 145.844C235 148.344 229.938 149.594 224.625 149.594ZM226.969 132.812C230.281 132.812 233.375 131.656 236.25 129.344C239.187 127.031 240.875 124.25 241.313 121C241.688 117.75 240.875 115 238.875 112.75C236.875 110.437 234.125 109.281 230.625 109.281C227.313 109.281 224.313 110.437 221.625 112.75C218.938 115 217.281 117.75 216.656 121C216.094 124.187 216.813 126.969 218.813 129.344C220.813 131.656 223.531 132.812 226.969 132.812ZM259.183 352L291.058 160H422.121L415.746 197.687H331.089L324.714 237.062H401.027L394.652 274.844H318.339L305.589 352H259.183Z" fill="#040404"/>
</svg>
