<svg width="512" height="512" viewBox="0 0 512 512" fill="none" xmlns="http://www.w3.org/2000/svg">
<rect width="512" height="512" fill="#F7F7F7"/>
<path d="M69.3 379L162.9 169H210.9L304.8 379H253.8L177 193.6H196.2L119.1 379H69.3ZM116.1 334L129 297.1H237L250.2 334H116.1ZM186.6 157.3C179.8 157.3 173.5 155.7 167.7 152.5C162.1 149.1 157.7 144.7 154.5 139.3C151.3 133.9 149.7 127.8 149.7 121C149.7 114.4 151.3 108.4 154.5 103C157.7 97.4 162.1 93 167.7 89.8C173.5 86.4 179.8 84.7 186.6 84.7C193.8 84.7 200.2 86.4 205.8 89.8C211.4 93 215.8 97.4 219 103C222.4 108.4 224.1 114.4 224.1 121C224.1 127.8 222.4 133.9 219 139.3C215.8 144.7 211.4 149.1 205.8 152.5C200.2 155.7 193.8 157.3 186.6 157.3ZM186.9 139.3C192.1 139.3 196.4 137.6 199.8 134.2C203.2 130.8 204.9 126.5 204.9 121.3C204.9 115.9 203.2 111.5 199.8 108.1C196.4 104.5 192 102.7 186.6 102.7C181.6 102.7 177.3 104.4 173.7 107.8C170.3 111.2 168.6 115.6 168.6 121C168.6 126.4 170.3 130.8 173.7 134.2C177.3 137.6 181.7 139.3 186.9 139.3ZM272.588 379V169H431.288V208H321.188V379H272.588ZM317.588 302.5V263.5H418.388V302.5H317.588Z" fill="#040404"/>
</svg>
