<svg width="512" height="512" viewBox="0 0 512 512" fill="none" xmlns="http://www.w3.org/2000/svg">
<rect width="512" height="512" fill="#F7F7F7"/>
<path d="M69.3 364L162.9 154H210.9L304.8 364H253.8L177 178.6H196.2L119.1 364H69.3ZM116.1 319L129 282.1H237L250.2 319H116.1ZM186.6 137.8C179.8 137.8 173.5 136.2 167.7 133C162.1 129.6 157.7 125.2 154.5 119.8C151.3 114.4 149.7 108.3 149.7 101.5C149.7 94.9 151.3 88.9 154.5 83.5C157.7 77.9 162.1 73.5 167.7 70.3C173.5 66.9 179.8 65.2 186.6 65.2C193.8 65.2 200.2 66.9 205.8 70.3C211.4 73.5 215.8 77.9 219 83.5C222.4 88.9 224.1 94.9 224.1 101.5C224.1 108.3 222.4 114.4 219 119.8C215.8 125.2 211.4 129.6 205.8 133C200.2 136.2 193.8 137.8 186.6 137.8ZM186.9 119.8C192.1 119.8 196.4 118.1 199.8 114.7C203.2 111.3 204.9 107 204.9 101.8C204.9 96.4 203.2 92 199.8 88.6C196.4 85 192 83.2 186.6 83.2C181.6 83.2 177.3 84.9 173.7 88.3C170.3 91.7 168.6 96.1 168.6 101.5C168.6 106.9 170.3 111.3 173.7 114.7C177.3 118.1 181.7 119.8 186.9 119.8ZM317.588 248.5H418.388V287.5H317.588V248.5ZM321.188 364H272.588V154H431.288V193H321.188V364Z" fill="#040404"/>
</svg>
